<svg width="42" height="42" viewBox="0 0 42 42" fill="none" xmlns="http://www.w3.org/2000/svg">
<circle cx="21" cy="21" r="20.75" stroke="black" stroke-width="0.5"/>
<path d="M17.6467 25.8668C16.859 28.1063 15.8087 29.9799 14.8896 30.4776C17.6321 30.258 24.1848 29.0285 28.456 25.8668C33.795 21.9146 29.2437 10.4096 29.375 11.9904C29.5063 13.5713 25.4801 15.1082 21.9354 16.4256C18.3906 17.743 18.6808 22.9267 17.6467 25.8668Z" stroke="black" stroke-width="0.5"/>
<path d="M14.9888 26.0085C15.2821 27.8841 15.2519 29.6013 14.7931 30.2998C16.6414 29.1067 20.7907 25.7594 22.6015 21.9153C24.865 17.1102 17.3029 10.731 17.994 11.7946C18.6851 12.8582 16.4316 15.4652 14.434 17.7354C12.4364 20.0055 14.6038 23.5464 14.9888 26.0085Z" stroke="black" stroke-width="0.5"/>
</svg>
